<svg xmlns="http://www.w3.org/2000/svg" width="720" height="420" viewBox="0 0 720 420" role="img" aria-labelledby="title">
  <title id="title">Fictional GRA membership card</title>
  <defs>
    <linearGradient id="bg" x1="0" x2="1" y1="0" y2="1">
      <stop offset="0" stop-color="#ffffff"/>
      <stop offset="1" stop-color="#e8e1d0"/>
    </linearGradient>
    <linearGradient id="stripe" x1="0" x2="1">
      <stop offset="0" stop-color="#111"/>
      <stop offset=".5" stop-color="#d41f1f"/>
      <stop offset="1" stop-color="#d0a33b"/>
    </linearGradient>
  </defs>
  <rect x="12" y="12" width="696" height="396" rx="28" fill="url(#bg)" stroke="#ded5c2" stroke-width="4"/>
  <rect x="12" y="330" width="696" height="44" fill="url(#stripe)" opacity=".9"/>
  <circle cx="602" cy="86" r="58" fill="#d41f1f" opacity=".12"/>
  <path d="M538 122c22-50 62-82 108-105-17 31-22 60-14 88 24-13 49-18 78-16-35 16-59 36-74 60 13 4 27 13 41 27-40-3-75-14-105-31-24 10-47 14-72 12 13-11 25-23 38-35z" fill="#0b2b44" opacity=".11"/>
  <text x="58" y="140" font-family="Arial Black, Arial, Helvetica, sans-serif" font-size="88" fill="#09263b">GRA</text>
  <text x="60" y="185" font-family="Arial, Helvetica, sans-serif" font-size="31" font-weight="800" fill="#111">SICHER. FAIR. VEREINT.</text>
  <text x="520" y="98" font-family="Arial Black, Arial, Helvetica, sans-serif" font-size="54" fill="#d41f1f">2026</text>
  <text x="60" y="267" font-family="Arial, Helvetica, sans-serif" font-size="21" fill="#26364a">Mitgliedsausweis, Demoansicht</text>
  <text x="60" y="301" font-family="Arial, Helvetica, sans-serif" font-size="18" fill="#4b596a">Keine echte Mitgliedschaft oder Zahlungsabwicklung.</text>
</svg>
